<svg width="253" height="281" xmlns="http://www.w3.org/2000/svg" fill="none">
 <mask height="240" width="240" y="0" x="0" maskUnits="userSpaceOnUse" mask-type="alpha" id="mask0">
  <circle id="svg_1" fill="#222222" r="120" cy="120" cx="120"/>
 </mask>

 <g>
  <title>Layer 1</title>
  <g stroke="null">
   <!-- Generator: Sketch 51.3 (57544) - http://www.bohemiancoding.com/sketch -->
   <title stroke="null">Logomark</title>
   <desc stroke="null">Created with Sketch.</desc>

   <g stroke="null" fill-rule="evenodd" fill="none" id="svg_29">
    <g stroke="null" transform="translate(260 160)" id="svg_30">
     <polygon stroke="null" points="-7.19879150390625,50.47771453857422 -7.2022705078125,-87.84121322631836 -132.35401916503906,-157.001220703125 -132.3505401611328,-18.682296752929688 " fill="#655AE6" id="svg_39"/>
     <polygon stroke="null" points="-7.203887939453125,-87.84087371826172 -132.35562133789062,-157.00088500976562 -132.35215759277344,-18.685291290283203 " fill="#5A50CE" id="svg_38"/>
     <polygon stroke="null" points="-7.200531005859375,50.475502014160156 -132.352294921875,-18.68451690673828 -7.204010009765625,-87.84121322631836 " fill="#655AE6" id="svg_37"/>
     <polygon stroke="null" points="-7.200531005859375,50.47771453857422 -132.352294921875,-18.682296752929688 -257.5016784667969,50.47216033935547 -132.3488006591797,119.63330078125 " fill="#4896F0" id="svg_36"/>
     <polygon stroke="null" points="-132.34913635253906,119.63053894042969 -132.35263061523438,-18.68506622314453 -7.20086669921875,50.476051330566406 " fill="#4896F0" id="svg_35"/>
     <polygon stroke="null" points="-257.5012512207031,50.470184326171875 -132.35296630859375,-18.684280395507812 -132.3494873046875,119.63020324707031 " fill="#4086D7" id="svg_34"/>
     <polygon stroke="null" points="-132.35598754882812,-157.001220703125 -257.5042419433594,-87.84673690795898 -257.500732421875,50.47216033935547 -132.35250854492188,-18.682296752929688 " fill="#F5D980" id="svg_33"/>
     <polygon stroke="null" points="-257.50457763671875,-87.84618377685547 -257.5011291503906,50.470497131347656 -132.3528594970703,-18.68506622314453 " fill="#F2D268" id="svg_32"/>
     <polygon stroke="null" points="-132.35598754882812,-157.001220703125 -257.5042419433594,-87.84673690795898 -132.35250854492188,-18.68451690673828 " fill="#FADA70" id="svg_31"/>
    </g>
   </g>
  </g>
  <path id="svg_4" fill="#CDE9FD" d="m162.622,119.4069c1.224,-7.7797 -0.009,-13.0722 -4.23,-17.8675c-4.648,-5.2782 -13.043,-7.5394 -23.785,-7.5394l-31.1824,0c-2.195,0 -4.0651,1.592 -4.4064,3.7544l-12.9851,82.0676c-0.2555,1.619 1.0004,3.083 2.6436,3.083l19.2503,0l-1.328,8.398c-0.224,1.417 0.873,2.697 2.312,2.697l16.227,0c1.92,0 3.555,-1.392 3.854,-3.284l0.16,-0.823l3.056,-19.32l0.197,-1.067c0.3,-1.891 1.935,-3.285 3.855,-3.285l2.427,0c15.72,0 28.028,-6.365 31.624,-24.775c1.504,-7.692 0.726,-14.113 -3.248,-18.627c-1.201,-1.363 -2.697,-2.4913 -4.441,-3.4121z"/>
  <path id="svg_5" fill="white" d="m162.622,119.4069c1.224,-7.7797 -0.009,-13.0722 -4.23,-17.8675c-4.648,-5.2782 -13.043,-7.5394 -23.785,-7.5394l-31.1824,0c-2.195,0 -4.0651,1.592 -4.4064,3.7544l-12.9851,82.0676c-0.2555,1.619 1.0004,3.083 2.6436,3.083l19.2503,0l4.836,-30.564l-0.151,0.958c0.343,-2.161 2.195,-3.754 4.391,-3.754l9.15,0c17.969,0 32.04,-7.277 36.15,-28.32c0.122,-0.6213 0.226,-1.2253 0.319,-1.8181z" clip-rule="evenodd" fill-rule="evenodd" opacity="0.68"/>
  <path id="svg_6" fill="white" d="m117.958,119.5098c0.205,-1.2997 1.043,-2.3651 2.17,-2.9029c0.512,-0.2445 1.086,-0.3809 1.686,-0.3809l24.442,0c2.896,0 5.596,0.1894 8.064,0.5856c0.705,0.1131 1.392,0.2435 2.059,0.3912c0.666,0.1476 1.314,0.3116 1.94,0.495c0.314,0.0906 0.622,0.1874 0.925,0.2872c1.212,0.4013 2.341,0.8739 3.38,1.4229c1.224,-7.7797 -0.009,-13.0721 -4.23,-17.8675c-4.65,-5.2792 -13.045,-7.5404 -23.787,-7.5404l-31.1824,0c-2.195,0 -4.0651,1.592 -4.4064,3.7544l-12.9851,82.0676c-0.2555,1.619 1.0004,3.083 2.6436,3.083l19.2503,0l4.836,-30.564l5.195,-32.8312z" clip-rule="evenodd" fill-rule="evenodd"/>
 </g>
</svg>